#!OML:ASF H:\ManfredETheater\Project 1\Capture day 1\Session 1\subject.ASF
:FULLY-SPECIFIED
:DEGREES
258
root 1.14853 16.9908 -36.2599 190.878 -8.49204 -183.341
lowerback 26.2455 1.22395 -2.03184
upperback 1.61016 0.672049 0.952052
thorax -12.9234 0.271392 2.05802
lowerneck -15.6998 -6.04551 -6.84627
upperneck 3.69052 -7.26095 4.86645
head 4.03136 -3.49692 1.99564
rclavicle 3.97569e-015 9.54166e-015
rhumerus -23.8926 -8.86689 -85.8433
rradius 47.714
rwrist -0.403496
rhand -26.8192 -0.671396
rfingers 7.12502
rthumb -0.245429 -30.651
lclavicle 3.97569e-015 9.54166e-015
lhumerus -43.9081 -4.28199 90.7954
lradius 62.3421
lwrist -5.06243
lhand -26.4488 -11.2376
lfingers 7.12502
lthumb 0.112313 18.7422
rfemur -42.5516 -14.6706 14.8175
rtibia 61.3586
rfoot -15.2267 -2.20564
rtoes -25.537
lfemur -54.0689 -4.22051 -14.9847
ltibia 64.2729
lfoot -1.52914 -18.697
ltoes 3.72244
259
root 1.12775 17.0442 -36.3806 190.567 -7.95554 -183.231
lowerback 25.8131 1.15286 -1.7778
upperback 1.4622 0.6879 0.943601
thorax -12.8573 0.275318 1.89329
lowerneck -16.0579 -5.84658 -6.63816
upperneck 4.44337 -6.97367 4.43009
head 4.28017 -3.36189 1.83694
rclavicle 7.95139e-016 -7.95139e-015
rhumerus -24.7217 -8.79684 -85.7824
rradius 48.38
rwrist -0.418112
rhand -26.8858 -0.598076
rfingers 7.12502
rthumb -0.30977 -30.5776
lclavicle 7.95139e-016 -7.95139e-015
lhumerus -43.7073 -4.562 90.6349
lradius 62.1208
lwrist -5.69126
lhand -25.3321 -11.2483
lfingers 7.12502
lthumb 1.19082 18.7282
rfemur -41.2907 -14.1935 14.7814
rtibia 60.4358
rfoot -15.4252 -2.47615
rtoes -25.6636
lfemur -53.1873 -4.31972 -14.522
ltibia 64.04
lfoot -1.4219 -19.3743
ltoes 4.07432
260
root 1.10665 17.1025 -36.5002 190.285 -7.35252 -183.152
lowerback 25.3906 1.104 -1.54834
upperback 1.31065 0.718707 0.901902
thorax -12.8 0.286169 1.70005
lowerneck -16.4325 -5.64762 -6.43992
upperneck 5.18914 -6.68673 4.04222
head 4.53473 -3.22729 1.69528
rclavicle 1.07344e-014 1.74931e-014
rhumerus -25.5244 -8.66453 -85.7477
rradius 49.0036
rwrist -0.392684
rhand -26.9263 -0.516335
rfingers 7.12502
rthumb -0.348905 -30.4958
lclavicle 1.07344e-014 1.74931e-014
lhumerus -43.5241 -4.68157 90.3858
lradius 61.9694
lwrist -6.38311
lhand -24.2683 -11.3041
lfingers 7.12502
lthumb 2.21823 18.6642
rfemur -40.0749 -13.629 14.6902
rtibia 59.4938
rfoot -15.5047 -2.68958
rtoes -25.7651
lfemur -52.1382 -4.47093 -14.0772
ltibia 63.5747
lfoot -1.51514 -19.9617
ltoes 4.46565
261
root 1.08621 17.1627 -36.6186 190.046 -6.69112 -183.111
lowerback 24.9549 1.07717 -1.36592
upperback 1.15882 0.75985 0.834426
thorax -12.7349 0.303408 1.50173
lowerneck -16.8134 -5.4496 -6.25604
upperneck 5.91268 -6.4017 3.70244
head 4.78858 -3.09383 1.57163
rclavicle 1.19271e-014 -1.27222e-014
rhumerus -26.2697 -8.46876 -85.7431
rradius 49.5676
rwrist -0.346532
rhand -26.9532 -0.434906
rfingers 7.12502
rthumb -0.374852 -30.4143
lclavicle 1.19271e-014 -1.27222e-014
lhumerus -43.3495 -4.66641 90.0728
lradius 61.8808
lwrist -7.01925
lhand -23.3819 -11.3387
lfingers 7.12502
lthumb 3.07431 18.6188
rfemur -38.9423 -12.9957 14.5513
rtibia 58.5719
rfoot -15.4848 -2.84977
rtoes -25.8419
lfemur -50.9565 -4.64702 -13.6781
ltibia 62.9184
lfoot -1.7873 -20.4356
ltoes 4.86463
262
root 1.06693 17.2232 -36.7362 189.854 -5.98912 -183.134
lowerback 24.4977 1.07062 -1.26374
upperback 1.00404 0.801363 0.743703
thorax -12.6608 0.324883 1.32407
lowerneck -17.1778 -5.25275 -6.08626
upperneck 6.60226 -6.11947 3.39987
head 5.03378 -2.96239 1.46319
rclavicle -1.27222e-014 -3.18055e-015
rhumerus -26.9595 -8.23655 -85.76
rradius 50.0846
rwrist -0.283157
rhand -26.9837 -0.331804
rfingers 7.12502
rthumb -0.404352 -30.3112
lclavicle -1.27222e-014 -3.18055e-015
lhumerus -43.1907 -4.54275 89.7238
lradius 61.8575
lwrist -7.48901
lhand -22.755 -11.2997
lfingers 7.12502
lthumb 3.67965 18.6483
rfemur -37.9019 -12.3358 14.3452
rtibia 57.6911
rfoot -15.4016 -2.95512
rtoes -25.8573
lfemur -49.6663 -4.82552 -13.3834
ltibia 62.112
lfoot -2.21426 -20.7773
ltoes 5.20427
263
root 1.04955 17.283 -36.8531 189.71 -5.26877 -183.233
lowerback 24.0123 1.08099 -1.25794
upperback 0.846003 0.836449 0.635961
thorax -12.5745 0.348743 1.18588
lowerneck -17.5045 -5.05993 -5.93434
upperneck 7.24191 -5.84396 3.12945
head 5.26162 -2.83517 1.36914
rclavicle 4.77083e-015 1.51076e-014
rhumerus -27.5888 -7.96962 -85.7901
rradius 50.5522
rwrist -0.22731
rhand -27.0197 -0.226639
rfingers 7.12502
rthumb -0.43907 -30.2059
lclavicle 4.77083e-015 1.51076e-014
lhumerus -43.0375 -4.34489 89.3655
lradius 61.8834
lwrist -7.68304
lhand -22.4321 -11.1495
lfingers 7.12502
lthumb 3.99155 18.7929
rfemur -36.9515 -11.6797 14.0718
rtibia 56.8543
rfoot -15.2883 -3.02583
rtoes -25.8196
lfemur -48.3051 -4.97367 -13.231
ltibia 61.1958
lfoot -2.73879 -20.9789
ltoes 5.51132
264
root 1.03401 17.3418 -36.9695 189.6 -4.56116 -183.394
lowerback 23.5045 1.09667 -1.32998
upperback 0.687737 0.856545 0.520002
thorax -12.4752 0.369954 1.08935
lowerneck -17.7783 -4.87189 -5.79926
upperneck 7.8237 -5.57619 2.88143
head 5.46643 -2.71307 1.28639
rclavicle -1.70955e-014 -4.77083e-015
rhumerus -28.165 -7.67616 -85.8245
rradius 50.9879
rwrist -0.193392
rhand -27.0527 -0.13504
rfingers 7.12502
rthumb -0.470989 -30.1143
lclavicle -1.70955e-014 -4.77083e-015
lhumerus -42.8819 -4.09888 89.0147
lradius 61.9464
lwrist -7.54275
lhand -22.3906 -10.8658
lfingers 7.12502
lthumb 4.03163 19.0758
rfemur -36.057 -11.0625 13.747
rtibia 56.0433
rfoot -15.1754 -3.07326
rtoes -25.7218
lfemur -46.8978 -5.06232 -13.2337
ltibia 60.2053
lfoot -3.3148 -21.0451
ltoes 5.80708
265
root 1.02057 17.3995 -37.0851 189.524 -3.89048 -183.6
lowerback 22.9862 1.1103 -1.45505
upperback 0.520787 0.860906 0.403079
thorax -12.3789 0.387227 1.02827
lowerneck -18.0014 -4.69096 -5.67637
upperneck 8.3601 -5.31932 2.64847
head 5.65183 -2.5976 1.21119
rclavicle -1.21259e-014 3.65764e-014
rhumerus -28.707 -7.36096 -85.8527
rradius 51.4067
rwrist -0.20592
rhand -27.0792 -0.0563461
rfingers 7.12502
rthumb -0.496592 -30.0355
lclavicle -1.21259e-014 3.65764e-014
lhumerus -42.7256 -3.82422 88.6788
lradius 62.0325
lwrist -7.08024
lhand -22.5694 -10.4505
lfingers 7.12502
lthumb 3.85894 19.4943
rfemur -35.2008 -10.5011 13.3969
rtibia 55.2312
rfoot -15.0782 -3.11452
rtoes -25.5648
lfemur -45.4899 -5.05567 -13.3827
ltibia 59.1753
lfoot -3.86783 -20.9967
ltoes 6.1734
266
root 1.00862 17.4568 -37.2008 189.452 -3.29302 -183.823
lowerback 22.4752 1.10627 -1.5859
upperback 0.356884 0.840873 0.292386
thorax -12.2812 0.393102 0.98618
lowerneck -18.1793 -4.51966 -5.56429
upperneck 8.85612 -5.07681 2.43055
head 5.82001 -2.4901 1.14262
rclavicle -1.2921e-014 -7.95139e-015
rhumerus -29.217 -7.03511 -85.8706
rradius 51.8197
rwrist -0.263331
rhand -27.0781 -0.0014068
rfingers 7.12502
rthumb -0.49551 -29.9806
lclavicle -1.2921e-014 -7.95139e-015
lhumerus -42.5577 -3.52471 88.3546
lradius 62.133
lwrist -6.3586
lhand -22.9015 -9.94494
lfingers 7.12502
lthumb 3.5382 20.0054
rfemur -34.3173 -10.0221 13.0449
rtibia 54.3855
rfoot -15.018 -3.16006
rtoes -25.3731
lfemur -44.0819 -4.9541 -13.6546
ltibia 58.1337
lfoot -4.384 -20.8531
ltoes 6.60302
267
root 0.998136 17.5136 -37.316 189.392 -2.78372 -184.042
lowerback 21.9756 1.07922 -1.69464
upperback 0.18757 0.797833 0.193427
thorax -12.1937 0.387139 0.952201
lowerneck -18.3124 -4.35866 -5.46065
upperneck 9.32136 -4.84974 2.22461
head 5.97367 -2.39095 1.07896
rclavicle -1.0138e-014 -7.15625e-015
rhumerus -29.7115 -6.70031 -85.8727
rradius 52.2345
rwrist -0.366529
rhand -27.0421 0.0312983
rfingers 7.12502
rthumb -0.460791 -29.9479
lclavicle -1.0138e-014 -7.15625e-015
lhumerus -42.385 -3.19782 88.037
lradius 62.2465
lwrist -5.48212
lhand -23.2911 -9.39238
lfingers 7.12502
lthumb 3.16195 20.5639
rfemur -33.4037 -9.62906 12.716
rtibia 53.4873
rfoot -14.9945 -3.21627
rtoes -25.1515
lfemur -42.7202 -4.74824 -14.0143
ltibia 57.1076
lfoot -4.8348 -20.6361
ltoes 7.16892
268
root 0.98952 17.5693 -37.4305 189.353 -2.37445 -184.233
lowerback 21.4793 1.02383 -1.76287
upperback 0.0115121 0.730093 0.112212
thorax -12.1132 0.36773 0.92261
lowerneck -18.4107 -4.20682 -5.35814
upperneck 9.76637 -4.63763 2.02844
head 6.11727 -2.29959 1.018
rclavicle 4.17448e-015 -3.18055e-015
rhumerus -30.1916 -6.3589 -85.8616
rradius 52.6566
rwrist -0.492453
rhand -26.9614 0.027502
rfingers 7.12502
rthumb -0.382822 -29.9519
lclavicle 4.17448e-015 -3.18055e-015
lhumerus -42.2076 -2.83853 87.7136
lradius 62.3691
lwrist -4.5657
lhand -23.6473 -8.83031
lfingers 7.12502
lthumb 2.81803 21.1308
rfemur -32.4632 -9.31324 12.436
rtibia 52.5273
rfoot -15.0016 -3.29667
rtoes -24.9317
lfemur -41.4391 -4.44217 -14.4182
ltibia 56.1158
lfoot -5.21262 -20.3685
ltoes 7.87706
269
root 0.982802 17.6232 -37.5438 189.348 -2.0719 -184.394
lowerback 20.9784 0.940367 -1.78636
upperback -0.169793 0.638656 0.0503212
thorax -12.0336 0.335017 0.896026
lowerneck -18.497 -4.06868 -5.26367
upperneck 10.2005 -4.44462 1.84764
head 6.25773 -2.21758 0.961626
rclavicle 3.57812e-015 7.95139e-015
rhumerus -30.6513 -6.02348 -85.8331
rradius 53.0889
rwrist -0.613492
rhand -26.8505 0.0083932
rfingers 7.12502
rthumb -0.27572 -29.9712
lclavicle 3.57812e-015 7.95139e-015
lhumerus -42.0146 -2.44359 87.3813
lradius 62.4991
lwrist -3.73652
lhand -23.9008 -8.27731
lfingers 7.12502
lthumb 2.57317 21.6869
rfemur -31.5159 -9.07158 12.2067
rtibia 51.5153
rfoot -15.0303 -3.40483
rtoes -24.7288
lfemur -40.2672 -4.05443 -14.8426
ltibia 55.1734
lfoot -5.54886 -20.0723
ltoes 8.60908
270
root 0.978296 17.6747 -37.6564 189.381 -1.87519 -184.521
lowerback 20.4733 0.831252 -1.77102
upperback -0.366266 0.525525 0.0109793
thorax -11.9667 0.290774 0.878211
lowerneck -18.5536 -3.94195 -5.17762
upperneck 10.6274 -4.26842 1.68073
head 6.39308 -2.14395 0.909874
rclavicle -8.74653e-015 -5.56597e-015
rhumerus -31.111 -5.68923 -85.7844
rradius 53.5252
rwrist -0.713839
rhand -26.719 -0.0151348
rfingers 7.12502
rthumb -0.148686 -29.9948
lclavicle -8.74653e-015 -5.56597e-015
lhumerus -41.8311 -2.01848 87.0425
lradius 62.6347
lwrist -3.06308
lhand -24.0288 -7.75334
lfingers 7.12502
lthumb 2.44957 22.2123
rfemur -30.5703 -8.89405 12.0313
rtibia 50.4675
rfoot -15.0774 -3.54331
rtoes -24.5503
lfemur -39.2084 -3.61148 -15.2605
ltibia 54.2872
lfoot -5.85961 -19.765
ltoes 9.33344
